#!OML:ASF F:\VICON\USERDATA\INSTALL\rory3\rory3.ASF
:FULLY-SPECIFIED
:DEGREES
2588
root 0.382703 15.2714 -2.06714 7.98791 11.1996 -6.01616
lowerback 30.113 5.73533 -3.82242
upperback 16.2567 6.32012 -6.71499
thorax 2.45302 3.38068 -6.58225
lowerneck 8.46464 -9.93499 -15.3069
upperneck 22.3404 -16.7019 18.9535
head 8.43623 -8.20845 8.11097
rclavicle -4.29375e-014 8.74653e-015
rhumerus 39.3599 12.9064 -459.995
rradius 11.575
rwrist 367.543
rhand -10.1582 1.00599
rfingers 7.12502
rthumb 15.8313 -28.3667
lclavicle -4.29375e-014 8.74653e-015
lhumerus 36.187 7.33527 112.929
lradius 16.4277
lwrist 43.4446
lhand -9.35881 32.0538
lfingers 7.12502
lthumb 16.601 61.3638
rfemur -33.1452 -1.84237 21.023
rtibia 45.2969
rfoot -15.5571 -10.8027
rtoes -16.0865
lfemur -39.8608 -8.82696 -8.15217
ltibia 47.1129
lfoot -11.5648 -3.54265
ltoes -15.0807
2589
root 0.381162 15.2737 -2.04378 8.03351 11.8957 -5.78086
lowerback 29.8569 5.78005 -4.02195
upperback 16.2472 6.36862 -6.63016
thorax 2.52569 3.39119 -6.37957
lowerneck 8.44325 -9.91154 -15.4345
upperneck 22.4524 -16.6744 18.9451
head 8.48508 -8.19856 8.13554
rclavicle 3.02153e-014 -1.19271e-014
rhumerus 39.3499 13.6047 -460.203
rradius 11.5341
rwrist 366.953
rhand -10.4232 0.668629
rfingers 7.12502
rthumb 15.5761 -28.7242
lclavicle 3.02153e-014 -1.19271e-014
lhumerus 36.5184 8.04846 113.006
lradius 16.4174
lwrist 43.171
lhand -11.9379 32.649
lfingers 7.12502
lthumb 14.1168 62.1494
rfemur -33.0048 -2.47018 20.8451
rtibia 45.4751
rfoot -15.7483 -10.7315
rtoes -14.0522
lfemur -39.9267 -9.29991 -8.36395
ltibia 46.996
lfoot -11.4538 -3.73374
ltoes -14.5648
2590
root 0.381271 15.2763 -2.02268 8.03563 12.5835 -5.53815
lowerback 29.7339 5.85824 -4.17123
upperback 16.1431 6.44971 -6.54645
thorax 2.44838 3.42032 -6.2269
lowerneck 8.54636 -9.85678 -15.6665
upperneck 22.7003 -16.6642 19.1108
head 8.58884 -8.20211 8.25609
rclavicle 2.22639e-014 -8.74653e-014
rhumerus 39.4372 15.0741 -459.55
rradius 11.4809
rwrist 364.614
rhand -11.2151 0.212546
rfingers 7.12502
rthumb 14.8133 -29.238
lclavicle 2.22639e-014 -8.74653e-014
lhumerus 36.768 8.98123 113.306
lradius 16.2793
lwrist 42.7042
lhand -12.6358 32.5289
lfingers 7.12502
lthumb 13.4443 62.075
rfemur -32.8369 -3.10038 20.6463
rtibia 45.645
rfoot -15.9918 -10.7541
rtoes -13.3056
lfemur -39.9464 -9.80741 -8.59896
ltibia 46.8825
lfoot -11.4161 -3.83383
ltoes -14.4107
2591
root 0.378882 15.2742 -2.00533 8.01218 13.26 -5.44426
lowerback 29.3723 6.0305 -4.32499
upperback 16.064 6.64215 -6.04962
thorax 2.587 3.49956 -6.00081
lowerneck 8.7975 -9.88014 -15.9555
upperneck 22.737 -16.7262 19.1638
head 8.60424 -8.25935 8.33528
rclavicle 1.27222e-014 -7.95139e-016
rhumerus 39.3301 15.4537 -459.338
rradius 11.6023
rwrist 364.661
rhand -11.1051 -0.0101749
rfingers 7.12502
rthumb 14.9193 -29.4529
lclavicle 1.27222e-014 -7.95139e-016
lhumerus 36.7688 9.32164 113.435
lradius 16.4062
lwrist 42.8531
lhand -12.5744 31.9745
lfingers 7.12502
lthumb 13.5034 61.5168
rfemur -32.7233 -3.59417 20.6005
rtibia 45.8105
rfoot -16.2428 -10.8911
rtoes -13.252
lfemur -40.0073 -10.212 -8.6615
ltibia 46.7786
lfoot -11.3412 -4.02764
ltoes -14.2262
2592
root 0.375529 15.2724 -1.98603 7.97151 14.0009 -5.49262
lowerback 29.1699 6.15364 -4.40621
upperback 16.041 6.81393 -5.71261
thorax 2.59893 3.56015 -5.601
lowerneck 8.87109 -9.9062 -16.1346
upperneck 22.7112 -16.7505 19.1195
head 8.60157 -8.28534 8.34921
rclavicle 6.36111e-015 1.27222e-014
rhumerus 39.5872 16.6475 -458.432
rradius 11.5784
rwrist 363.442
rhand -11.4834 -0.174135
rfingers 7.12502
rthumb 14.5548 -29.6435
lclavicle 6.36111e-015 1.27222e-014
lhumerus 36.8952 9.49594 113.456
lradius 16.5673
lwrist 42.9219
lhand -12.5349 32.2575
lfingers 7.12502
lthumb 13.5415 61.7972
rfemur -32.5869 -4.07867 20.7221
rtibia 45.9305
rfoot -16.4815 -11.0622
rtoes -13.0206
lfemur -40.0996 -10.5723 -8.57135
ltibia 46.6996
lfoot -11.2393 -4.32924
ltoes -14.1214
2593
root 0.37081 15.2734 -1.96316 7.95685 14.7536 -5.40377
lowerback 28.9526 6.21337 -4.50892
upperback 16.0482 6.90581 -5.51314
thorax 2.66654 3.59058 -5.32078
lowerneck 8.87128 -9.85954 -16.3367
upperneck 22.7102 -16.7048 19.2246
head 8.6202 -8.27095 8.43
rclavicle 1.35174e-014 4.05521e-014
rhumerus 40.0143 17.8996 -457.537
rradius 11.5988
rwrist 361.908
rhand -11.7379 -0.504054
rfingers 7.12502
rthumb 14.3095 -29.991
lclavicle 1.35174e-014 4.05521e-014
lhumerus 37.4913 10.3283 114.08
lradius 16.2462
lwrist 41.9986
lhand -12.5701 32.2788
lfingers 7.12502
lthumb 13.5075 61.8207
rfemur -32.4259 -4.636 20.7095
rtibia 46.0142
rfoot -16.6917 -11.2291
rtoes -12.938
lfemur -40.1638 -10.9741 -8.62743
ltibia 46.6127
lfoot -11.1506 -4.66099
ltoes -14.1055
2594
root 0.367638 15.2739 -1.9395 7.88984 15.4632 -5.32258
lowerback 28.7446 6.29701 -4.62497
upperback 16.0592 7.02331 -5.29415
thorax 2.73127 3.63124 -5.01951
lowerneck 8.88135 -9.84194 -16.5406
upperneck 22.7901 -16.7008 19.2936
head 8.67214 -8.2769 8.49627
rclavicle 0 -1.66979e-014
rhumerus 39.6789 16.4446 -458.891
rradius 11.895
rwrist 365.713
rhand -9.52206 -0.639852
rfingers 7.12502
rthumb 16.4439 -29.9629
lclavicle 0 -1.66979e-014
lhumerus 38.2467 11.4028 115.101
lradius 15.8109
lwrist 40.8532
lhand -12.1938 31.1701
lfingers 7.12502
lthumb 13.8702 60.6876
rfemur -32.1829 -5.17168 20.6882
rtibia 46.0474
rfoot -16.8807 -11.4498
rtoes -13.1269
lfemur -40.1384 -11.354 -8.69721
ltibia 46.515
lfoot -11.0518 -4.96647
ltoes -13.3278
2595
root 0.366841 15.2777 -1.91596 7.77827 16.1841 -5.26335
lowerback 28.6288 6.32535 -4.62818
upperback 16.036 7.08503 -5.12432
thorax 2.72997 3.6556 -4.83317
lowerneck 8.80336 -9.83801 -16.7981
upperneck 23.0041 -16.73 19.3832
head 8.80226 -8.29564 8.57644
rclavicle -5.24792e-014 2.22639e-014
rhumerus 39.7336 17.9093 -458.013
rradius 12.1465
rwrist 363.564
rhand -10.8836 -1.01078
rfingers 7.12502
rthumb 15.1327 -30.4375
lclavicle -5.24792e-014 2.22639e-014
lhumerus 38.4933 11.5508 115.009
lradius 15.873
lwrist 40.9346
lhand -11.9581 30.7391
lfingers 7.12502
lthumb 14.0973 60.2409
rfemur -31.8668 -5.70816 20.671
rtibia 46.0565
rfoot -17.0263 -11.6224
rtoes -12.8591
lfemur -40.0472 -11.7458 -8.76842
ltibia 46.3797
lfoot -10.9413 -5.26618
ltoes -12.8706
2596
root 0.366974 15.2842 -1.89195 7.64937 16.946 -5.29915
lowerback 28.5096 6.32722 -4.52609
upperback 15.9906 7.13591 -4.96036
thorax 2.71455 3.68237 -4.70987
lowerneck 8.80336 -9.83812 -16.8562
upperneck 23.1331 -16.7397 19.3967
head 8.8577 -8.29831 8.59664
rclavicle -7.95139e-014 4.53229e-014
rhumerus 39.5769 18.508 -457.916
rradius 12.4466
rwrist 363.466
rhand -11.8627 -1.09814
rfingers 7.12502
rthumb 14.1894 -30.5935
lclavicle -7.95139e-014 4.53229e-014
lhumerus 38.2832 10.7134 113.835
lradius 16.3339
lwrist 42.3525
lhand -12.4836 31.0263
lfingers 7.12502
lthumb 13.5909 60.5626
rfemur -31.514 -6.28725 20.7562
rtibia 46.0207
rfoot -17.2149 -11.755
rtoes -12.6871
lfemur -39.9713 -12.1352 -8.74826
ltibia 46.2292
lfoot -10.8493 -5.52726
ltoes -12.5308
2597
root 0.366648 15.2901 -1.86713 7.54213 17.7091 -5.18801
lowerback 28.3836 6.36051 -4.57534
upperback 15.9789 7.19586 -4.82318
thorax 2.73203 3.7056 -4.53286
lowerneck 8.81605 -9.90651 -16.6517
upperneck 23.1343 -16.7789 19.2014
head 8.82742 -8.30482 8.48141
rclavicle -1.51076e-014 7.15625e-015
rhumerus 39.924 19.3305 -457.312
rradius 12.5565
rwrist 362.642
rhand -12.7107 -0.196826
rfingers 7.12502
rthumb 13.3721 -29.7477
lclavicle -1.51076e-014 7.15625e-015
lhumerus 38.1855 9.98182 112.9
lradius 16.7353
lwrist 43.6364
lhand -13.6306 31.5475
lfingers 7.12502
lthumb 12.4853 61.1545
rfemur -31.1382 -6.92486 20.6879
rtibia 45.9668
rfoot -17.377 -11.8547
rtoes -12.6092
lfemur -39.8498 -12.5831 -8.88395
ltibia 46.0426
lfoot -10.7804 -5.77983
ltoes -12.4746
2598
root 0.362024 15.2967 -1.84209 7.39848 18.4487 -5.13746
lowerback 28.3034 6.38466 -4.56577
upperback 15.9552 7.25121 -4.71221
thorax 2.7252 3.73235 -4.42183
lowerneck 8.83617 -9.93363 -16.5894
upperneck 23.142 -16.8037 19.1788
head 8.82427 -8.31025 8.4609
rclavicle -4.77083e-015 -2.0276e-014
rhumerus 40.3499 20.1215 -456.851
rradius 12.4863
rwrist 361.356
rhand -13.3412 0.217585
rfingers 7.12502
rthumb 12.7643 -29.3722
lclavicle -4.77083e-015 -2.0276e-014
lhumerus 38.5227 10.2689 112.941
lradius 16.6561
lwrist 43.4095
lhand -14.9084 33.0145
lfingers 7.12502
lthumb 11.2531 62.6926
rfemur -30.7234 -7.3971 20.6855
rtibia 45.8774
rfoot -17.565 -12.0929
rtoes -12.6214
lfemur -39.6945 -12.9864 -8.93697
ltibia 45.852
lfoot -10.6338 -6.09021
ltoes -11.5871
2599
root 0.356836 15.3061 -1.81619 7.22924 19.0949 -5.18702
lowerback 27.9409 6.57848 -4.88995
upperback 16.0697 7.48271 -4.23489
thorax 2.91855 3.79599 -3.73084
lowerneck 8.86601 -9.96954 -16.9676
upperneck 23.0413 -16.8588 19.2247
head 8.83798 -8.3628 8.53371
rclavicle -4.29375e-014 3.26007e-014
rhumerus 40.716 21.131 -455.897
rradius 12.5385
rwrist 360.31
rhand -13.4507 0.0385326
rfingers 7.12502
rthumb 12.6587 -29.5579
lclavicle -4.29375e-014 3.26007e-014
lhumerus 39.0767 10.976 113.825
lradius 16.5172
lwrist 42.6468
lhand -16.1118 34.2606
lfingers 7.12502
lthumb 10.0923 63.9986
rfemur -30.322 -7.78753 20.8018
rtibia 45.7638
rfoot -17.6875 -12.4277
rtoes -13.1721
lfemur -39.5145 -13.273 -8.8862
ltibia 45.6623
lfoot -10.422 -6.42877
ltoes -9.84749
2600
root 0.355894 15.3113 -1.79224 7.0195 19.729 -5.32021
lowerback 27.1604 6.9768 -5.69406
upperback 16.4106 7.93011 -3.18442
thorax 3.41697 3.88747 -2.15259
lowerneck 8.91295 -10.101 -17.6881
upperneck 22.7387 -16.989 19.0368
head 8.80892 -8.48669 8.55433
rclavicle 6.36111e-015 -2.14687e-014
rhumerus 41.1285 22.1939 -454.235
rradius 12.7447
rwrist 359.412
rhand -12.9938 -0.0452966
rfingers 7.12502
rthumb 13.0992 -29.6139
lclavicle 6.36111e-015 -2.14687e-014
lhumerus 39.6047 11.4021 115.201
lradius 16.6183
lwrist 42.1829
lhand -16.6775 34.6211
lfingers 7.12502
lthumb 9.54648 64.3848
rfemur -29.9159 -8.23665 20.981
rtibia 45.6261
rfoot -17.7647 -12.6098
rtoes -13.252
lfemur -39.3541 -13.5436 -8.77239
ltibia 45.5059
lfoot -10.2042 -6.74577
ltoes -8.95135
2601
root 0.352957 15.3164 -1.76733 6.81249 20.3614 -5.51402
lowerback 27.2726 6.85377 -5.10049
upperback 16.2033 7.8862 -3.37884
thorax 3.21752 3.93053 -2.69967
lowerneck 8.88038 -10.064 -17.4459
upperneck 22.984 -16.9698 19.1565
head 8.88362 -8.44743 8.57242
rclavicle -3.26007e-014 8.90555e-014
rhumerus 40.8633 21.9765 -455.174
rradius 13.0066
rwrist 359.449
rhand -12.2311 -0.092496
rfingers 7.12502
rthumb 13.8343 -29.6124
lclavicle -3.26007e-014 8.90555e-014
lhumerus 39.5259 10.8771 114.104
lradius 16.71
lwrist 42.4828
lhand -16.6153 34.7877
lfingers 7.12502
lthumb 9.60653 64.5487
rfemur -29.5389 -8.63846 21.2337
rtibia 45.4911
rfoot -17.8595 -12.8206
rtoes -12.9253
lfemur -39.2225 -13.786 -8.59796
ltibia 45.3549
lfoot -10.1086 -6.99527
ltoes -9.69121
